<svg width="52" height="52" viewBox="0 0 52 52" fill="none" xmlns="http://www.w3.org/2000/svg">
<path d="M8.26668 4.99999C7.4003 4.99999 6.56941 5.34416 5.95679 5.95678C5.34418 6.5694 5.00001 7.40029 5.00001 8.26666V12C5.00001 12.6188 4.75418 13.2123 4.31659 13.6499C3.87901 14.0875 3.28552 14.3333 2.66668 14.3333C2.04784 14.3333 1.45435 14.0875 1.01676 13.6499C0.579176 13.2123 0.333344 12.6188 0.333344 12V8.26666C0.333344 6.16261 1.16917 4.14474 2.65696 2.65695C4.14475 1.16916 6.16263 0.333328 8.26668 0.333328H12C12.6188 0.333328 13.2123 0.579161 13.6499 1.01675C14.0875 1.45433 14.3333 2.04782 14.3333 2.66666C14.3333 3.2855 14.0875 3.87899 13.6499 4.31658C13.2123 4.75416 12.6188 4.99999 12 4.99999H8.26668ZM37.6667 2.66666C37.6667 2.04782 37.9125 1.45433 38.3501 1.01675C38.7877 0.579161 39.3812 0.333328 40 0.333328H43.7333C45.8374 0.333328 47.8553 1.16916 49.3431 2.65695C50.8308 4.14474 51.6667 6.16261 51.6667 8.26666V12C51.6667 12.6188 51.4208 13.2123 50.9833 13.6499C50.5457 14.0875 49.9522 14.3333 49.3333 14.3333C48.7145 14.3333 48.121 14.0875 47.6834 13.6499C47.2458 13.2123 47 12.6188 47 12V8.26666C47 7.40029 46.6558 6.5694 46.0432 5.95678C45.4306 5.34416 44.5997 4.99999 43.7333 4.99999H40C39.3812 4.99999 38.7877 4.75416 38.3501 4.31658C37.9125 3.87899 37.6667 3.2855 37.6667 2.66666ZM2.66668 37.6667C3.28552 37.6667 3.87901 37.9125 4.31659 38.3501C4.75418 38.7877 5.00001 39.3812 5.00001 40V43.7333C5.00001 44.5997 5.34418 45.4306 5.95679 46.0432C6.56941 46.6558 7.4003 47 8.26668 47H12C12.6188 47 13.2123 47.2458 13.6499 47.6834C14.0875 48.121 14.3333 48.7145 14.3333 49.3333C14.3333 49.9522 14.0875 50.5457 13.6499 50.9832C13.2123 51.4208 12.6188 51.6667 12 51.6667H8.26668C6.16263 51.6667 4.14475 50.8308 2.65696 49.343C1.16917 47.8553 0.333344 45.8374 0.333344 43.7333V40C0.333344 39.3812 0.579176 38.7877 1.01676 38.3501C1.45435 37.9125 2.04784 37.6667 2.66668 37.6667ZM49.3333 37.6667C49.9522 37.6667 50.5457 37.9125 50.9833 38.3501C51.4208 38.7877 51.6667 39.3812 51.6667 40V43.7333C51.6667 45.8374 50.8308 47.8553 49.3431 49.343C47.8553 50.8308 45.8374 51.6667 43.7333 51.6667H40C39.3812 51.6667 38.7877 51.4208 38.3501 50.9832C37.9125 50.5457 37.6667 49.9522 37.6667 49.3333C37.6667 48.7145 37.9125 48.121 38.3501 47.6834C38.7877 47.2458 39.3812 47 40 47H43.7333C44.5997 47 45.4306 46.6558 46.0432 46.0432C46.6558 45.4306 47 44.5997 47 43.7333V40C47 39.3812 47.2458 38.7877 47.6834 38.3501C48.121 37.9125 48.7145 37.6667 49.3333 37.6667ZM40 16.6667C40.6188 16.6667 41.2123 16.9125 41.6499 17.3501C42.0875 17.7877 42.3333 18.3812 42.3333 19V33C42.3333 33.6188 42.0875 34.2123 41.6499 34.6499C41.2123 35.0875 40.6188 35.3333 40 35.3333C39.3812 35.3333 38.7877 35.0875 38.3501 34.6499C37.9125 34.2123 37.6667 33.6188 37.6667 33V19C37.6667 18.3812 37.9125 17.7877 38.3501 17.3501C38.7877 16.9125 39.3812 16.6667 40 16.6667ZM33 19C33 18.3812 32.7542 17.7877 32.3166 17.3501C31.879 16.9125 31.2855 16.6667 30.6667 16.6667C30.0478 16.6667 29.4543 16.9125 29.0168 17.3501C28.5792 17.7877 28.3333 18.3812 28.3333 19V33C28.3333 33.6188 28.5792 34.2123 29.0168 34.6499C29.4543 35.0875 30.0478 35.3333 30.6667 35.3333C31.2855 35.3333 31.879 35.0875 32.3166 34.6499C32.7542 34.2123 33 33.6188 33 33V19ZM21.3333 16.6667C21.9522 16.6667 22.5457 16.9125 22.9833 17.3501C23.4208 17.7877 23.6667 18.3812 23.6667 19V33C23.6667 33.6188 23.4208 34.2123 22.9833 34.6499C22.5457 35.0875 21.9522 35.3333 21.3333 35.3333C20.7145 35.3333 20.121 35.0875 19.6834 34.6499C19.2458 34.2123 19 33.6188 19 33V19C19 18.3812 19.2458 17.7877 19.6834 17.3501C20.121 16.9125 20.7145 16.6667 21.3333 16.6667ZM14.3333 19C14.3333 18.3812 14.0875 17.7877 13.6499 17.3501C13.2123 16.9125 12.6188 16.6667 12 16.6667C11.3812 16.6667 10.7877 16.9125 10.3501 17.3501C9.91251 17.7877 9.66668 18.3812 9.66668 19V33C9.66668 33.6188 9.91251 34.2123 10.3501 34.6499C10.7877 35.0875 11.3812 35.3333 12 35.3333C12.6188 35.3333 13.2123 35.0875 13.6499 34.6499C14.0875 34.2123 14.3333 33.6188 14.3333 33V19Z" fill="black"/>
</svg>
