<svg width="43" height="50" viewBox="0 0 43 50" fill="none" xmlns="http://www.w3.org/2000/svg">
<path d="M42.8234 30.0206C42.8274 27.7913 42.2661 25.5974 41.192 23.644C41.33 23.4398 41.4476 23.2222 41.5448 22.9915C41.7911 22.4023 41.879 21.759 41.7998 21.1254C41.7206 20.4918 41.477 19.8899 41.0933 19.3796C40.7095 18.8692 40.1989 18.4681 39.6121 18.2162C39.0254 17.9642 38.383 17.8701 37.7486 17.9432C38.0269 17.3823 38.2477 16.7971 38.4111 16.1876L39.6268 11.671C40.2887 9.56721 40.153 7.29339 39.2455 5.28328C38.3381 3.27317 36.7224 1.66745 34.7068 0.772435C32.6911 -0.12258 30.4165 -0.244254 28.3168 0.430622C26.2171 1.1055 24.4394 2.52969 23.3227 4.43153C22.3 3.02183 20.8082 2.023 19.1152 1.61447C17.4223 1.20595 15.6391 1.41451 14.0861 2.20269C12.5331 2.99087 11.312 4.307 10.6423 5.91464C9.97255 7.52228 9.89802 9.31606 10.4321 10.9737H6.63763C0.0821948 10.9737 -2.49162 19.4752 2.96241 23.1107L6.17554 25.2539L3.93463 34.0453C3.65449 35.1061 3.62385 36.2175 3.84511 37.2922C4.06637 38.3669 4.53352 39.3757 5.20995 40.2397C6.09381 41.379 7.2999 42.2261 8.67151 42.671V48.2393C8.67151 48.6786 8.84601 49.0999 9.15661 49.4105C9.46722 49.7211 9.88849 49.8956 10.3278 49.8956H41.1671C41.6064 49.8956 42.0277 49.7211 42.3383 49.4105C42.6489 49.0999 42.8234 48.6786 42.8234 48.2393V30.0206ZM19.6359 43.0222H24.1409C25.1003 43.0223 26.0214 42.6458 26.706 41.9736C27.3905 41.3014 27.7838 40.3873 27.8012 39.4281C27.8012 38.9373 27.7043 38.4514 27.516 37.9982C27.3276 37.545 27.0517 37.1334 26.7039 36.7871C26.3561 36.4409 25.9433 36.1667 25.4893 35.9804C25.0352 35.7941 24.5488 35.6993 24.0581 35.7015H19.6359V31.1319C19.6359 30.8593 19.5687 30.5909 19.4401 30.3505C19.3115 30.1102 19.1256 29.9052 18.8989 29.7539L4.7992 20.3547C2.07301 18.5362 3.35991 14.2862 6.63763 14.2862H11.3381L11.7356 15.7603C12.1145 17.1704 12.8849 18.4445 13.9577 19.4352C15.0304 20.4259 16.3616 21.0926 17.7974 21.3584C18.731 21.5218 19.6883 21.4908 20.6094 21.2674C21.5304 21.0439 22.3955 20.6329 23.1504 20.0599C23.2421 20.0754 23.3359 20.0831 23.432 20.0831H29.5734C30.2083 20.0842 30.8266 20.1416 31.4284 20.2553L27.2712 21.8553C26.4767 22.1639 25.8148 22.7401 25.3997 23.4846C24.9846 24.229 24.8423 25.095 24.9974 25.9331C25.1524 26.7712 25.5951 27.5289 26.2491 28.0756C26.9031 28.6222 27.7273 28.9235 28.5796 28.9275C29.0334 28.9275 29.4823 28.843 29.9046 28.679L38.383 25.4162C39.1035 26.7909 39.5109 28.3594 39.5109 30.0206V46.5831H19.6359V43.0222ZM25.6067 16.7706C25.6696 16.6072 25.7276 16.4415 25.7806 16.2737C26.2145 14.8807 26.2438 13.3931 25.865 11.984L25.123 9.29925L25.5205 7.81856L25.5305 7.77881C25.6918 7.02857 26.0039 6.31893 26.4478 5.69297C26.8917 5.067 27.4582 4.53776 28.1128 4.13737C28.7675 3.73698 29.4967 3.47378 30.2561 3.36376C31.0156 3.25373 31.7895 3.29917 32.5309 3.49732C33.2722 3.69547 33.9656 4.04219 34.5689 4.51644C35.1722 4.9907 35.6728 5.58259 36.0405 6.25621C36.4081 6.92982 36.6349 7.6711 36.7074 8.43507C36.7798 9.19903 36.6962 9.96975 36.4617 10.7004L36.4501 10.7369L35.2129 15.333C34.9941 16.1443 34.6107 16.902 34.0867 17.559C32.6394 17.0361 31.1122 16.7693 29.5734 16.7706H25.6067Z" fill="#C3A4A4"/>
</svg>
