<svg width="49" height="49" viewBox="0 0 49 49" fill="none" xmlns="http://www.w3.org/2000/svg">
<path d="M33.7921 18.5518C33.7921 20.9388 32.8439 23.228 31.1561 24.9158C29.4682 26.6036 27.1791 27.5518 24.7921 27.5518C22.4052 27.5518 20.116 26.6036 18.4282 24.9158C16.7403 23.228 15.7921 20.9388 15.7921 18.5518C15.7921 16.1649 16.7403 13.8757 18.4282 12.1879C20.116 10.5 22.4052 9.55182 24.7921 9.55182C27.1791 9.55182 29.4682 10.5 31.1561 12.1879C32.8439 13.8757 33.7921 16.1649 33.7921 18.5518Z" fill="#C3A4A4"/>
<path fill-rule="evenodd" clip-rule="evenodd" d="M0.792114 24.5518C0.792114 18.1866 3.32068 12.0821 7.82155 7.58126C12.3224 3.08038 18.4269 0.551819 24.7921 0.551819C31.1573 0.551819 37.2618 3.08038 41.7627 7.58126C46.2635 12.0821 48.7921 18.1866 48.7921 24.5518C48.7921 30.917 46.2635 37.0215 41.7627 41.5224C37.2618 46.0233 31.1573 48.5518 24.7921 48.5518C18.4269 48.5518 12.3224 46.0233 7.82155 41.5224C3.32068 37.0215 0.792114 30.917 0.792114 24.5518ZM24.7921 3.55182C20.8374 3.55203 16.9632 4.66891 13.6153 6.7739C10.2674 8.8789 7.58196 11.8865 5.86801 15.4504C4.15405 19.0143 3.48127 22.9898 3.92711 26.9193C4.37295 30.8487 5.91927 34.5724 8.38811 37.6618C10.5181 34.2298 15.2071 30.5518 24.7921 30.5518C34.3771 30.5518 39.0631 34.2268 41.1961 37.6618C43.665 34.5724 45.2113 30.8487 45.6571 26.9193C46.103 22.9898 45.4302 19.0143 43.7162 15.4504C42.0023 11.8865 39.3168 8.8789 35.9689 6.7739C32.621 4.66891 28.7468 3.55203 24.7921 3.55182Z" fill="#C3A4A4"/>
</svg>
