<svg width="79" height="81" viewBox="0 0 79 81" fill="none" xmlns="http://www.w3.org/2000/svg">
<g filter="url(#filter0_d_17_57)">
<path d="M39.5 73L60.6706 63.5731L69.4398 40.8147H9.56023L18.3294 63.5731L39.5 73Z" fill="#D9D9D9"/>
<path d="M4 40.8147V30.5318L6.42045 26.6055H8.84091L11.2614 17.9585L14.892 10.9617L19.3295 4.89776L27.8011 1.19733L39.5 0L51.1989 1.19733L59.6705 4.89776L64.108 10.9617L67.7386 17.9585L70.1591 26.6055H72.5795L75 30.5318V40.8147H70.1591L69.4398 40.8147L59.6705 40.8147L58.9608 40.8147L51.1989 40.8147L50.8343 40.8147L39.5 40.8147L27.8011 40.8147H19.3295L19.1837 40.8147L9.34639 40.8147H4Z" fill="#282323"/>
<path d="M67.9834 41.8145L59.8857 62.8271L39.5 71.9053L19.1133 62.8271L11.0166 41.8145H67.9834ZM50.9434 2.17676L59.0225 5.70605L63.2568 11.4912L66.8027 18.3281L69.1963 26.875L69.4004 27.6055H72.0215L74 30.8154V39.8145H5V30.8154L6.97852 27.6055H9.59961L9.80371 26.875L12.1963 18.3281L15.7422 11.4912L19.9766 5.70605L28.0557 2.17676L39.5 1.00488L50.9434 2.17676Z" stroke="#090909" stroke-width="2"/>
</g>
<defs>
<filter id="filter0_d_17_57" x="0" y="0" width="79" height="81" filterUnits="userSpaceOnUse" color-interpolation-filters="sRGB">
<feFlood flood-opacity="0" result="BackgroundImageFix"/>
<feColorMatrix in="SourceAlpha" type="matrix" values="0 0 0 0 0 0 0 0 0 0 0 0 0 0 0 0 0 0 127 0" result="hardAlpha"/>
<feOffset dy="4"/>
<feGaussianBlur stdDeviation="2"/>
<feComposite in2="hardAlpha" operator="out"/>
<feColorMatrix type="matrix" values="0 0 0 0 0 0 0 0 0 0 0 0 0 0 0 0 0 0 0.25 0"/>
<feBlend mode="normal" in2="BackgroundImageFix" result="effect1_dropShadow_17_57"/>
<feBlend mode="normal" in="SourceGraphic" in2="effect1_dropShadow_17_57" result="shape"/>
</filter>
</defs>
</svg>
