<svg width="49" height="50" viewBox="0 0 49 50" fill="none" xmlns="http://www.w3.org/2000/svg">
<path d="M7.13171 13.0329H39.7355V25.0518H7.13171V13.0329ZM7.13171 7.0235H39.7355V10.0282H7.13171V7.0235ZM24.9156 40.0754H33.8075V43.0801H24.9156V40.0754ZM24.9156 34.066H39.7355V37.0707H24.9156V34.066ZM24.9156 28.0565H39.7355V31.0612H24.9156V28.0565ZM7.13171 40.0754H21.9516V43.0801H7.13171V40.0754ZM7.13171 34.066H21.9516V37.0707H7.13171V34.066ZM7.13171 28.0565H21.9516V31.0612H7.13171V28.0565Z" fill="#C3A4A4"/>
<path d="M45.7921 6.67682V0.551819H0.792114V44.9581C0.792114 46.1764 1.26622 47.3448 2.11013 48.2063C2.95405 49.0678 4.09864 49.5518 5.29211 49.5518H44.2921C45.4856 49.5518 46.6302 49.0678 47.4741 48.2063C48.318 47.3448 48.7921 46.1764 48.7921 44.9581V6.67682H45.7921ZM5.29211 46.4893C4.89429 46.4893 4.51276 46.328 4.23145 46.0408C3.95015 45.7537 3.79211 45.3642 3.79211 44.9581V3.61432H42.7921V41.8956C42.7921 46.4893 45.7921 46.4893 45.7921 46.4893H5.29211Z" fill="#C3A4A4"/>
</svg>
